<?xml version="1.0" encoding="UTF-8"?>
<svg id="Capa_1" data-name="Capa 1" xmlns="http://www.w3.org/2000/svg" viewBox="0 0 899.47 240.68">
  <defs>
    <style>
      .cls-1 {
        fill: #3f3f3f;
      }

      .cls-2 {
        fill: #ff265c;
      }
    </style>
  </defs>
  <path class="cls-1" d="M0,61.4h45.13v174.31H0V61.4Z"/>
  <path class="cls-1" d="M67.23,61.4h44.51v26.77c2.28-5.6,5.65-10.79,10.12-15.56,4.46-4.77,10.38-8.66,17.74-11.67,7.36-3,16.44-4.51,27.24-4.51s21.17,2.29,29.88,6.85c8.71,4.57,15.56,12.09,20.54,22.57,4.98,10.48,7.47,24.64,7.47,42.49v107.39h-44.51v-103.34c0-6.85-.52-13.12-1.56-18.83-1.04-5.71-3.38-10.22-7-13.54-3.63-3.32-9.39-4.98-17.28-4.98-6.23,0-12.66,1.76-19.3,5.29-6.64,3.53-12.19,9.29-16.65,17.27-4.46,7.99-6.69,18.94-6.69,32.84v85.29h-44.51V61.4Z"/>
  <path class="cls-1" d="M224.73,61.4h47.62l46.69,174.31h-41.4l-52.92-174.31ZM390.64,61.4l-52.91,174.31h-41.4l46.69-174.31h47.62Z"/>
  <path class="cls-1" d="M458.34,61.4h91.82v37.97h-91.82v-37.97ZM478.26,17.82h44.51v164.35c0,5.19,1.4,9.08,4.2,11.67,2.8,2.6,7,3.89,12.61,3.89h15.56v37.97h-15.87c-20.34,0-35.59-4.46-45.76-13.39-10.17-8.92-15.25-22.3-15.25-40.15V17.82Z"/>
  <path class="cls-1" d="M644.16,240.68c-18.05,0-33.72-3.89-47-11.67-13.28-7.78-23.61-18.62-30.97-32.53-7.37-13.9-11.05-29.78-11.05-47.62s3.68-34.03,11.05-47.93c7.36-13.9,17.69-24.79,30.97-32.68,13.28-7.88,28.95-11.83,47-11.83,11.83,0,23.03,2.39,33.62,7.16,10.58,4.77,19.71,11.73,27.39,20.85,7.68,9.13,13.28,20.34,16.81,33.62,3.53,13.28,4.05,28.43,1.56,45.44h-143.18v-36.11h112.99l-14.32,8.41c1.03-6.02.47-12.09-1.71-18.21-2.18-6.12-5.97-11.2-11.36-15.25-5.4-4.05-12.66-6.07-21.79-6.07-10.58,0-19.1,2.33-25.52,7-6.43,4.67-11.05,11-13.85,18.99-2.8,7.99-4.2,16.86-4.2,26.61s1.4,18.26,4.2,26.15c2.8,7.89,7.42,14.16,13.85,18.83,6.43,4.67,14.94,7,25.52,7,8.5,0,15.56-1.97,21.17-5.91,5.6-3.94,9.54-8.82,11.83-14.63h47c-2.49,12.04-7.37,22.57-14.63,31.59-7.27,9.03-16.45,16.08-27.55,21.17-11.1,5.08-23.71,7.62-37.82,7.62Z"/>
  <polygon class="cls-2" points="821.34 148.55 795.36 189.32 765.77 235.7 713.8 235.7 769.36 148.55 713.8 61.39 765.77 61.39 795.36 107.78 821.34 148.55"/>
  <polygon class="cls-1" points="899.47 235.7 847.49 235.7 817.93 189.32 843.9 148.55 899.47 235.7"/>
  <polygon class="cls-1" points="899.47 61.39 843.9 148.55 817.93 107.78 847.49 61.39 899.47 61.39"/>
  <rect class="cls-1" x="0" y="4.98" width="45.13" height="45.13"/>
  <path class="cls-1" d="M401.92,61.4h45.13v174.31h-45.13V61.4Z"/>
  <rect class="cls-1" x="401.92" y="4.98" width="45.13" height="45.13"/>
</svg>